<?xml version="1.0" encoding="utf-8"?>
<!-- Generator: Adobe Illustrator 23.0.0, SVG Export Plug-In . SVG Version: 6.00 Build 0)  -->
<svg version="1.0" id="Layer_1" xmlns="http://www.w3.org/2000/svg" xmlns:xlink="http://www.w3.org/1999/xlink" x="0px" y="0px"
	 viewBox="0 0 2500 1000" enable-background="new 0 0 2500 1000" xml:space="preserve">
<g id="bldrs_x5F_logo">
</g>
<g>
	<path id="Fire" fill="#FF0000" d="M1001.9,260.5c-4.2-31.4-6.1-47.5-60.1-74.6c-54-27.1-257.4-5.7-375.8,28.5
		c-81.4,23.5-176.8,82.2-188,89.6c-3.3,2.2-4.9,5.7-3.2,11.1c1.6,5.2,128.7-23.9,154.8-20.3c3.4,0.5,6.9,1.3,7.3,6.6
		c0.4,5-2.4,7.2-5.7,8.3c-0.8,0.3-1.6,0.6-2.4,0.8c-43,13-82.5,34.6-119.8,60.4c-118.8,82.4-210,208.4-274.4,318.6
		c-2.7,4.6-6.4,10.1-1.9,15.5c3.7,4.5,7.8,1.8,11.9-1.5c20.4-16.6,90.9-105.5,229.4-145.9c2.2-0.6,7.5-0.8,7.8,0.6
		c0.4,1.4-2.5,4.8-7.1,11.1c-13,17.7-79.1,83.4-88.7,147.8c-0.5,3.4-1.4,9.2,0.6,10.6c2,1.4,6-1.4,8.1-3.5
		c28.4-28.2,58.7-45.8,90.8-54.4c22.9-6.1,46.1-10,68-7.3c8.4,1,16.6,3.4,23.1,10.4c4.5,4.8,5.9,11.5,2.6,18.8
		c-3.3,7.4-7.2,14.8-11.8,21.3c-7.8,11.2-48.4,65.7-56.9,94.5c-3.1,10.5,0,13.8,7.8,9.8c8.1-4.2,25.8-21.5,59.2-45.6
		c33.3-24.1,76.9-51.2,124.1-68c97.4-34.7,181.4,0,275.1-35.4c31.2-20,54.1-46.9,69.7-78.8c15.5-32,40.9-162.4,40.9-162.4
		s8.6-43.7,13.6-90.5C1003.6,309.7,1004.7,281.6,1001.9,260.5z"/>
	<path id="Play" fill="#FFFFFF" d="M660.9,578.5C720,508.2,780.6,440.7,848,381.2c-65.5-16.2-99-22.4-166-49
		C674.6,413.6,667.5,495.7,660.9,578.5z"/>
	<g>
		<path fill="#FFFFFF" d="M1128.6,642.9h-57l63.1-390.7h73.1l63.1,390.7h-57l-10.4-86.6H1139L1128.6,642.9z M1147.6,497.9h47.5
			l-23.3-167.7h-0.9L1147.6,497.9z"/>
		<path fill="#FFFFFF" d="M1284.8,642.9V252.3h53.2v124.4c20.9-19.5,31.8-30.3,55.1-30.3c33.2,0,54.1,28.1,54.1,81.2v139.6
			c0,53-20.9,81.2-54.1,81.2c-26.6,0-39.4-10.3-57-35.7h-0.9v30.3H1284.8z M1337.9,583.4c10.4,8.7,19.9,15.2,30.4,15.2
			c14.2,0,25.6-8.7,25.6-47.1V443.3c0-38.4-11.4-47.1-25.6-47.1c-10.4,0-19.9,6.5-30.4,15.1V583.4z"/>
		<path fill="#FFFFFF" d="M1475.1,454.6c0-63.8,21.8-108.2,82.6-108.2s82.6,44.4,82.6,108.2v85.5c0,63.8-21.8,108.2-82.6,108.2
			s-82.6-44.4-82.6-108.2V454.6z M1587.2,443.8c0-33.5-10.4-47.6-29.4-47.6c-19,0-29.4,14.1-29.4,47.6v107.1
			c0,33.5,10.4,47.6,29.4,47.6c19,0,29.4-14.1,29.4-47.6V443.8z"/>
		<path fill="#FFFFFF" d="M1708.2,310.7h-57v-58.4h172.8v58.4h-57v332.2h-58.9V310.7z"/>
		<path fill="#FFFFFF" d="M1997.8,351.8v291.1h-50.3v-29.2c-22.3,21.6-33.7,34.6-64.6,34.6c-28,0-44.6-23.3-44.6-61.1V351.8h53.2
			v225.6c0,14.6,7.6,21.1,19,21.1s21.8-8.1,34.2-18.4V351.8H1997.8z"/>
		<path fill="#FFFFFF" d="M2031.5,642.9V252.3h53.2v124.4c20.9-19.5,31.8-30.3,55.1-30.3c33.2,0,54.1,28.1,54.1,81.2v139.6
			c0,53-20.9,81.2-54.1,81.2c-26.6,0-39.4-10.3-57-35.7h-0.9v30.3H2031.5z M2084.7,583.4c10.4,8.7,19.9,15.2,30.4,15.2
			c14.2,0,25.6-8.7,25.6-47.1V443.3c0-38.4-11.4-47.1-25.6-47.1c-10.4,0-19.9,6.5-30.4,15.1V583.4z"/>
		<path fill="#FFFFFF" d="M2387.1,508.7h-112v42.2c0,33.5,10.4,47.6,29.4,47.6c19,0,29.4-14.1,29.4-47.6v-6.5h53.2
			c-0.9,61.7-23.3,103.9-82.6,103.9c-60.8,0-82.6-44.4-82.6-108.2v-85.5c0-63.8,21.8-108.2,82.6-108.2s82.6,44.4,82.6,108.2V508.7z
			 M2334,459v-15.2c0-33.5-10.4-47.6-29.4-47.6c-19,0-29.4,14.1-29.4,47.6V459H2334z"/>
	</g>
</g>
</svg>
