<?xml version="1.0" encoding="utf-8"?>
<!-- Generator: Adobe Illustrator 23.0.0, SVG Export Plug-In . SVG Version: 6.00 Build 0)  -->
<svg version="1.0" id="Layer_1" xmlns="http://www.w3.org/2000/svg" xmlns:xlink="http://www.w3.org/1999/xlink" x="0px" y="0px"
	 viewBox="0 0 1000 1000" enable-background="new 0 0 1000 1000" xml:space="preserve">
<g id="bldrs_x5F_logo">
	<path id="Fire_2_" fill="#FF0000" d="M934.2,260.5c-4.2-31.4-6.1-47.5-60.1-74.6s-257.4-5.7-375.8,28.5
		c-81.4,23.5-176.8,82.2-188,89.6c-3.3,2.2-4.9,5.7-3.2,11.1c1.6,5.2,128.7-23.9,154.8-20.3c3.4,0.5,6.9,1.3,7.3,6.6
		c0.4,5-2.4,7.2-5.7,8.3c-0.8,0.3-1.6,0.6-2.4,0.8c-43,13-82.5,34.6-119.8,60.4c-118.8,82.4-210,208.4-274.4,318.6
		c-2.7,4.6-6.4,10.1-1.9,15.5c3.7,4.5,7.8,1.8,11.9-1.5c20.4-16.6,90.9-105.5,229.4-145.9c2.2-0.6,7.5-0.8,7.8,0.6
		c0.4,1.4-2.5,4.8-7.1,11.1c-13,17.7-79.1,83.4-88.7,147.8c-0.5,3.4-1.4,9.2,0.6,10.6s6-1.4,8.1-3.5c28.4-28.2,58.7-45.8,90.8-54.4
		c22.9-6.1,46.1-10,68-7.3c8.4,1,16.6,3.4,23.1,10.4c4.5,4.8,5.9,11.5,2.6,18.8c-3.3,7.4-7.2,14.8-11.8,21.3
		c-7.8,11.2-48.4,65.7-56.9,94.5c-3.1,10.5,0,13.8,7.8,9.8c8.1-4.2,25.8-21.5,59.2-45.6c33.3-24.1,76.9-51.2,124.1-68
		c97.4-34.7,181.4,0,275.1-35.4c31.2-20,54.1-46.9,69.7-78.8c15.5-32,40.9-162.4,40.9-162.4s8.6-43.7,13.6-90.5
		C935.9,309.7,937,281.6,934.2,260.5z"/>
	<path id="Play_2_" fill="#FFFFFF" d="M593.2,578.5c59.1-70.3,119.7-137.8,187.1-197.2c-65.5-16.2-99-22.4-166-49
		C606.8,413.6,599.8,495.7,593.2,578.5z"/>
</g>
</svg>
